<?xml version="1.0" encoding="utf-8"?>
<!-- Generator: Adobe Illustrator 15.1.0, SVG Export Plug-In . SVG Version: 6.00 Build 0)  -->
<!DOCTYPE svg PUBLIC "-//W3C//DTD SVG 1.1//EN" "http://www.w3.org/Graphics/SVG/1.1/DTD/svg11.dtd">
<svg version="1.1" id="レイヤー_1" xmlns="http://www.w3.org/2000/svg" xmlns:xlink="http://www.w3.org/1999/xlink" x="0px"
	 y="0px" width="452.518px" height="133.6px" viewBox="-120.42 -0.617 452.518 133.6"
	 enable-background="new -120.42 -0.617 452.518 133.6" xml:space="preserve">
<g>
	<g>
		<g>
			<path fill="#231815" d="M74.292,23.763c-5.548-2.306-15.724-13.851-8.794-17.554c6.928-3.702,12.941,2.763,9.249,8.311
				C71.053,20.069,74.292,23.763,74.292,23.763z"/>
			<path fill="#231815" d="M83.532,21.907c-5.255-0.371-5.092-10.163,1.377-10.629C91.379,10.809,90.002,22.364,83.532,21.907z"/>
			<path fill="#231815" d="M96.934,21.896c-5.289,1.138-6.016-8.313-0.932-9.242C101.084,11.726,103.401,20.505,96.934,21.896z"/>
			<path fill="#231815" d="M64.439,26.97c7.94-0.57,11.115-2.261,11.12,2.806c0.004,5.067,0.544,18.016,1.075,20.831
				c0.532,2.814-7.935,7.325-8.998,1.697c-1.063-5.63-2.135-20.831-4.783-22.518C60.205,28.1,64.439,26.97,64.439,26.97z"/>
			<path fill="#231815" d="M80.323,28.647c3.175-0.566,10.058-0.009,13.763-0.575c3.703-3.944,2.644-3.38,7.94-1.696
				c5.295,1.684,3.179,3.938,3.183,8.443c0.003,4.504-3.165,13.515-2.635,15.766c0.532,2.252-7.407,5.074-8.47,0.007
				c-1.063-5.065,0.513-18.58,0.513-18.58s-10.057,0.571-14.291,1.138C76.091,33.718,77.146,29.212,80.323,28.647z"/>
			<path fill="#231815" d="M78.745,40.471c6.35-1.131,12.704-0.573,12.704-0.573s5.295,2.247-2.645,2.817
				c-7.94,0.569-11.116,0.571-11.116,0.571L78.745,40.471z"/>
			<path fill="#231815" d="M80.869,48.915c6.311,0.955,8.999-1.133,10.059,0.555c1.061,1.689,3.709,3.938-1.584,3.943
				c-5.294,0.003-11.647,0.572-11.647,0.572S77.162,48.355,80.869,48.915z"/>
			<path fill="#231815" d="M81.913,30.897c1.589,1.125,2.13,15.2,1.604,19.705c-0.526,4.504,4.237,2.811,4.234-0.567
				c-0.003-3.378-0.545-20.268-0.545-20.268L81.913,30.897z"/>
			<path fill="#231815" d="M59.949,57.5c0.928,5.545,1.371,12.16,4.605,11.695c3.234-0.465,8.847-2.784,8.847-2.784
				s26.924-1.468,32.932-1.011c6.007,0.457,4.17-8.36,0.334-7.335c-6.266,1.674-30.499,1.873-37.43,1.418
				C62.305,59.026,59.949,57.5,59.949,57.5z"/>
			<path fill="#231815" d="M70.168,75.34c1.386-0.001,2.593,12.012,3.982,15.709c1.389,3.696,6.933,2.766,6.469-1.393
				c-0.467-4.158-0.744-12.014-0.744-12.014l13.399-1.397c0,0,0.292,7.393-0.63,11.554c-0.92,4.159,2.779,6.467,3.701,5.08
				c0.923-1.388,4.788-12.481,5.247-16.641s-1.39-5.544-4.626-6.929c-3.235-1.384-3.235-0.458-5.083,0.467
				c-1.848,0.926-13.4,1.397-17.096,1.4C71.088,71.179,70.168,75.34,70.168,75.34z"/>
			<path fill="#231815" d="M79.698,87.068l16.649-0.476c0,0,2.774,2.308-0.46,2.772c-3.234,0.465-16.186,0.475-16.186,0.475
				L79.698,87.068z"/>
			<path fill="#231815" d="M111.025,48.367c-1.949-0.276-6.692-8.073,0.271-8.635c6.964-0.563,21.727-0.018,25.07-0.3
				c3.342-0.281,2.53,5.75-1.091,6.589c-3.62,0.838-19.794,1.506-21.466,1.507C112.14,47.531,111.025,48.367,111.025,48.367z"/>
			<path fill="#231815" d="M117.968,22.735c-2.786-2.227-3.905-8.075,0.829-7.801c4.737,0.275,7.247,3.615,7.526,6.122
				c0.281,2.507,0.304,30.083-8.585,59.339c-3.896,6.688-6.119,10.868-10.577,9.758s-3.409-0.54-0.004-4.178
				c4.174-4.46,7.228-16.719,8.338-22.292c2.049-10.283,3.041-27.579,2.481-30.643C117.417,29.978,117.968,22.735,117.968,22.735z"
				/>
			<path fill="#231815" d="M123.253,50.028c0.61,2.128,7.091,20.39,18.876,26.139c14.057,6.857-3.51,21.873-6.984,11.258
				c-1.992-6.085-5.137-11.118-6.049-12.639c-0.914-1.52-4.355-12.653-8.312-14.171C116.831,59.098,123.253,50.028,123.253,50.028z"
				/>
			<path fill="#231815" d="M135.553,34.459c-4.292-0.777-5.021-7.935-1.678-9.19c0.417-0.835,2.216-4.315,3.89-3.063
				C139.436,23.457,144.326,33.198,135.553,34.459z"/>
		</g>
		<g>
			<path fill="#231815" d="M165.503,46.138c-5.088,1.429-11.338-16.44-2.585-13.272c9.887,3.576,33.422-1.696,40.154-2.488
				c6.73-0.792,11.72,8.512,2.479,9C199.743,39.685,165.503,46.138,165.503,46.138z"/>
			<path fill="#231815" d="M176.647,68.008c-12.859,2.171-16.074-12.921-7.763-10.733c7.316,1.927,29.746-4.643,33.67-3.498
				c5.146,1.503,10.503,7.617-1.489,9.508C192.034,64.709,176.647,68.008,176.647,68.008z"/>
			<path fill="#231815" d="M177.16,26.213c-7.776-11.899,0.251-15.693,7.271-12.16c7.019,3.534,5.991,2.245,5.957,10.77
				s6.218,55.255,7.811,64.503c0.719,4.17-9.153,3.018-9.844-3.122C187.665,80.065,177.16,26.213,177.16,26.213z"/>
			<path fill="#231815" d="M205.771,23.214c-7.233-0.348-7.309-10.39-1.636-12.349C212.561,9.597,214.674,23.642,205.771,23.214z"/>
			<path fill="#231815" d="M218.677,21.604c-4.756,0.203-5.72-8.641-0.182-7.817C224.033,14.611,224.825,21.342,218.677,21.604z"/>
		</g>
		<g>
			<path fill="#231815" d="M262.582,36.499c-14.813,0.593-17.185-11.851-19.554-12.444c-2.37-0.592-3.774-6.377,10.073-3.555
				c4.681,0.954,26.073,0.592,33.776-1.186c7.704-1.778,5.926,9.481,1.777,11.258c-4.147,1.778-5.332,2.963-10.073,2.963
				C273.842,33.536,262.582,36.499,262.582,36.499z"/>
			<path fill="#231815" d="M247.153,52.258c-1.831-3.05-6.099-5.49,0.61-5.49c6.708,0,12.197-1.22,12.197-1.22
				s-1.219,14.027,1.829,21.346c3.05,7.319-6.709,13.418-9.148,5.491C250.202,64.455,247.153,52.258,247.153,52.258z"/>
			<path fill="#231815" d="M264.229,48.597c2.44,0,13.419-2.439,15.858-3.049c2.44-0.61,0.609-4.879,6.709-3.05
				c6.1,1.83,6.71,5.489,6.71,5.489s-4.881,22.232-4.271,25.283c0.61,3.049-8.448,1.22-8.448,1.22l0.609-22.842
				c0,0-14.727,1.829-17.776,1.829C260.571,53.477,258.132,48.597,264.229,48.597z"/>
			<path fill="#231815" d="M261.181,58.966c3.049,0,14.029-0.61,19.517-0.61c5.489,0,1.831,2.441-3.049,3.051
				s-15.249,1.22-15.249,1.22S259.352,58.966,261.181,58.966z"/>
			<path fill="#231815" d="M261.181,69.945c0,0,11.588-1.83,17.688-1.83s2.438,3.05,0.609,3.05s-17.688,1.829-17.688,1.829
				L261.181,69.945z"/>
			<path fill="#231815" d="M267.28,30.301c0,0,0.609,40.253,0.609,42.084l6.709-1.22c0-3.05,0-43.304,0-43.304L267.28,30.301z"/>
			<path fill="#231815" d="M233.647,64.796c3.758-1.252,6.888-2.503,10.644,8.139c3.757,10.644,0,15.652-4.382,16.904
				c-4.383,1.252-6.262-2.504-6.262-5.635s0-8.766-1.251-12.521C231.143,67.926,233.647,64.796,233.647,64.796z"/>
			<path fill="#231815" d="M243.039,80.448c0,0,45.704-2.505,55.096-2.505c0,0,0-8.138,0-11.27c0-3.13,11.895-7.513,12.521-2.504
				c0.627,5.009-2.503,16.278-3.13,20.66c-0.626,4.384-6.887,5.009-8.14,0c0,0-51.964,1.253-57.599,2.505
				C236.151,88.587,243.039,80.448,243.039,80.448z"/>
		</g>
	</g>
	<g>
		<path fill="#E62A19" d="M-29.412,96.785c-14.209-0.467-12.849-20.455,0.092-21.642C-14.434,73.777-12.106,97.352-29.412,96.785z"
			/>
		<g>
			<path fill="#231815" d="M-11.558,24.769c5.436-3.771,6.651-4.864,14.694-12.433c6.403-6.027,9.223-11.972,13.905-6.414
				c4.682,5.56,7.691,12.684,0.602,14.614c-7.088,1.928-17.994,4.813-23.969,5.697C-12.301,27.118-11.558,24.769-11.558,24.769z"/>
			<path fill="#231815" d="M-19.93,29.031c0.177-5.399,3.053-10.71,8.922-8.354c5.869,2.354-0.354,10.797,0.805,24.888
				c1.159,14.09,1.449,21.666,1.449,21.666c1.442,5.452-3.012,10.969-6.603,3.566C-20.418,60.361-19.93,29.031-19.93,29.031z"/>
			<path fill="#231815" d="M-6.283,30.42c6.496-0.328,23.25-1.459,23.733-3.767c0.893-4.262,7.662-3.169,9.087,2.822
				c1.423,5.992-2.401,21.726-8.127,23.409c-6.886,2.026-0.654-19.374-0.654-19.374s-14.144,2.778-21.18,3.089
				C-10.461,36.906-6.283,30.42-6.283,30.42z"/>
			<path fill="#231815" d="M-1.655,40.956c7.703-0.601,7.642-0.535,12.993-0.655c0,0,4.771,2.858-2.266,3.169
				c-7.036,0.309-11.374,0.707-11.374,0.707S-6.532,41.336-1.655,40.956z"/>
			<path fill="#231815" d="M-4.777,48.879c2.701,0.088,17.684-1.952,17.684-1.952s1.548,4.85-3.869,5.212
				C3.621,52.503-1.24,52.344-2.875,52.829C-5.466,53.601-8.239,48.765-4.777,48.879z"/>
			<path fill="#231815" d="M-5.23,58.699c4.345-0.291,32.084-5.974,35.216-2.628c3.135,3.346,1.46,4.913-10.434,5.063
				c-11.896,0.15-22.224,1.973-24.924,1.884C-8.071,62.928-10.646,59.06-5.23,58.699z"/>
			<path fill="#231815" d="M-7.076,66.744c4.301,0.681,36.237-2.052,36.237-2.052c7.108-2.469,7.63-1.911,11.322,0.912
				c3.688,2.823,3.437,5.884,1.84,9.789c-3.022,7.391-4.922,18.214-6.648,21.401c-1.726,3.187-2.822,3.689-8.133,0.813
				c-5.311-2.877-6.896-4.009-1.982-5.471c4.913-1.459,4.7-13.119,6.205-18.771c0.351-1.312,0.376-1.506,0.376-1.506
				c-8.778-0.488-32.974,1.036-37.867,1.955c-4.895,0.921-6.209-7.229-6.209-7.229L-7.076,66.744z"/>
			<path fill="#231815" d="M-7.654,90.317c-7.098,0.314-6.231-7.771-1.336-8.689C-4.095,80.706-0.618,90.01-7.654,90.317z"/>
			<path fill="#231815" d="M3.637,89.007c-4.02-0.867-5.168-7.196,0.788-7.54C10.383,81.121,9.541,90.282,3.637,89.007z"/>
			<path fill="#231815" d="M17.304,87.512c-4.441,0.347-4.143-5.54,0.717-5.381S22.18,87.133,17.304,87.512z"/>
		</g>
	</g>
	<g>
		<path fill-rule="evenodd" clip-rule="evenodd" fill="#231815" d="M-52.781,29.159c2.03-7.786-10.561-9.815-12.928-3.387
			c-1.353,0-18.881,0-18.881,0c1.353-7.445-8.241-7.58-9.595-0.136c0,0-5.383,32.533-18.724,29.724c0,0,0,6.319,6.995,6.286
			c8.799-0.042,12.859-6.091,12.859-6.091h19.861c-4.808,17.094-12.997,28.903-18.682,36.295c-1.518,1.973-0.262,4.252,1.554,3.694
			C-68.008,88.699-61.67,63.27-52.781,29.159z M-70.702,48.109c0,0-5.969,0-19.504,0c0.936-3.047,3.542-12.184,3.542-12.184h18.776
			L-70.702,48.109z"/>
		<circle fill-rule="evenodd" clip-rule="evenodd" fill="#231815" cx="-46.861" cy="17.644" r="6.771"/>
		<circle fill-rule="evenodd" clip-rule="evenodd" fill="#231815" cx="-33.254" cy="10.813" r="6.055"/>
	</g>
	<g>
		<path fill-rule="evenodd" clip-rule="evenodd" fill="#231815" d="M-15.578,109.605c-3.001,0.329-2.885-2.457-4.933-3.082
			c-3.904,2.468-6.763,5.978-6.165,12.946c2.632,3.413,7.978,1.187,10.481-0.617c0.683,1.167,0.785,2.914,1.232,4.317
			c-1.798,1.678-8.274,1.482-12.33,0.616C-39.689,115.233-19.606,93.948-15.578,109.605z"/>
		<path fill-rule="evenodd" clip-rule="evenodd" fill="#231815" d="M7.593,104.061c0.547,0.48,1.39,0.664,2.464,0.618
			c1.185,1.692,1.449,4.304,1.85,6.78c1.027,0,2.055,0,3.082,0c1.261-1.82,0.64-5.523,1.85-7.398
			c6.542,1.312,2.758,16.094,4.317,20.346c-4.185-0.953-5.975-4.302-5.55-9.864c-5.864-1.344-4.066,4.976-4.314,9.247
			C3.398,123.459,6.723,109.702,7.593,104.061z"/>
		<path fill-rule="evenodd" clip-rule="evenodd" fill="#231815" d="M193.732,110.702c-2.313,0.465-1.344-2.354-3.083-2.466
			c-4.481,1.609-9.231,10.659-4.313,14.18c2.829-0.046,3.325-2.428,4.313-4.314c-0.074-1.569-0.896-2.392-2.465-2.466
			c0.992-2.547,5.934-0.817,7.396,0c1.118,4.056,0.731,6.668,0.617,11.096c-2.556,0.708-2.4-1.296-4.313-1.232
			c-9.481,5.907-16.78-12.862-7.401-18.495C186.961,105.518,194.304,103.956,193.732,110.702z"/>
		<path fill-rule="evenodd" clip-rule="evenodd" fill="#231815" d="M92.71,108.123c-4.511,4.071-0.86,10.258-3.083,17.263
			c-3.905-1.438-9.523-1.162-10.481-5.548c2.244-1.794,3.599,1.422,6.165,1.233c1.752-1.982-0.271-8.056,0.618-9.249
			c-1.35-1.526-4.467-1.287-5.549-3.081C81.835,105.874,89.146,106.59,92.71,108.123z"/>
		<path fill-rule="evenodd" clip-rule="evenodd" fill="#231815" d="M125.45,109.001c2.327-0.272,2.895,1.216,4.314,1.85
			c0.062,6.657,1.732,10.938,1.85,15.413c-2.563,1.28-4.558-2.653-5.547-4.934c-0.765,1.498-1.651,2.871-3.084,3.7
			c-7.629,0.529-9.526-8.741-6.782-14.796c1.743-0.51,1.597,0.869,3.083,0.616c1.28,2.213,0.318,6.667,0.616,9.863
			C124.349,119.409,123.988,113.294,125.45,109.001z"/>
		<path fill-rule="evenodd" clip-rule="evenodd" fill="#231815" d="M221.764,107.404c2.328-0.272,2.895,1.216,4.316,1.851
			c0.159,5.464,1.209,13.072,0.615,17.262C218.162,126.079,220.951,114.444,221.764,107.404z"/>
		<path fill-rule="evenodd" clip-rule="evenodd" fill="#231815" d="M260.02,111.384c-2.766,0.506-2.753-1.77-4.314-2.467
			c-2.648,2.176-5.514,7.097-3.699,11.713c3.121,0.654,3.109-1.821,4.933-2.465c-0.07-1.575-1.131-2.158-1.851-3.083
			c1.632-1.39,5.219,0.509,7.397,0.616c-1.299,3.066,0.209,6.848-0.615,9.247c-7.098-1.065-14.566,0.858-14.797-8.631
			C246.862,107.702,256.862,101.78,260.02,111.384z"/>
		<path fill-rule="evenodd" clip-rule="evenodd" fill="#231815" d="M54.597,112.265c-3.642-4.281-11.371-5.381-13.564,0
			c-1.651,4.056,2.17,5.73,1.234,9.866c2.907,0.382,3.78,2.795,6.781,3.081C52.747,122.745,55.61,119.445,54.597,112.265z
			 M45.967,120.28c-0.77-0.479-1.301-1.23-1.606-2.105c-1.434-3.112,0.327-8.306,4.51-7.574c0.438,0.457,0.739,0.989,0.945,1.555
			C51.326,115.28,49.13,119.937,45.967,120.28z"/>
		<path fill-rule="evenodd" clip-rule="evenodd" fill="#231815" d="M293.909,105.358c-6.591,2.135-7.338,13.081-7.398,19.728
			c1.453-0.014,1.816,1.063,3.7,0.616c1.479-0.78-0.342-4.861,1.232-5.547c1.411,0.643,3.719,0.391,4.932,1.232
			c0.075,4.651,2.393,7.06,6.782,7.397C302.278,118.772,299.979,110.179,293.909,105.358z M293.611,116.929
			c0.154,0.647,0.258,1.347,0.326,2.08c-1.742,0.51-1.597-0.869-3.081-0.616c-0.406-2.256,1.333-2.366,1.232-4.316
			c0.117,0.102,0.223,0.217,0.327,0.333c0.398-0.65,0.935-1.164,0.876-2.271c1.217,1.045,1.655,2.867,1.849,4.932
			C294.354,117.302,293.952,117.145,293.611,116.929z"/>
		<path fill-rule="evenodd" clip-rule="evenodd" fill="#231815" d="M151.743,115.998c2.311-1.26,8.261-0.879,9.864,0.616
			C159.217,119.863,153.543,119.125,151.743,115.998z"/>
		<path fill-rule="evenodd" clip-rule="evenodd" fill="#231815" d="M-102.591,104.024c4.043-0.809,10.574-0.881,13.804,3.379
			c3.231,4.258,2.79,9.69,0.734,12.48c-2.055,2.79-9.692,3.672-13.363,3.377c-0.441-1.321,0.294-12.775,0.294-12.775
			s3.671-1.469,3.523-0.146c-0.147,1.322-2.202,9.692,0.147,9.399c2.349-0.295,7.636-3.379,7.489-6.021
			c-0.146-2.644-3.672-6.461-10.72-5.581c-2.056,0.294-1.615-1.174-1.763-1.614C-102.591,106.081-103.325,104.172-102.591,104.024z"
			/>
		<path fill-rule="evenodd" clip-rule="evenodd" fill="#231815" d="M-56.946,106c-0.882-1.907-0.588-2.788-1.322-2.055
			c-0.733,0.735-2.202,0.44-4.111,1.027s-4.505,13.864-5.141,17.035c-0.146,0.734,2.791,0.734,3.378,0.439
			c0.587-0.293,0.881-1.321,0.734-2.202c-0.147-0.881,0.732-4.111,0.732-4.111s3.085-0.146,3.965-0.294
			c0.881-0.146,1.322,3.817,1.322,3.817s-0.293,2.497,0.294,2.938c0.586,0.441,3.524,0.147,3.671-0.88
			C-52.981,119.951-56.065,107.91-56.946,106z M-59.002,113.05c0,0-2.349,0.439-2.938,0.588c0,0,0.441-2.35,0.441-2.938
			c0-0.587,0.587-0.733,0.733-1.322c0.147-0.587,0.588-1.027,1.323,0.882C-58.709,112.168-59.002,113.05-59.002,113.05z"/>
	</g>
</g>
</svg>
